<svg width="267" height="266" viewBox="0 0 267 266" fill="none" xmlns="http://www.w3.org/2000/svg">
<path fill-rule="evenodd" clip-rule="evenodd" d="M266 133C266 205.902 206.678 265 133.5 265C60.3223 265 1 205.902 1 133C1 60.0984 60.3223 1 133.5 1C206.678 1 266 60.0984 266 133ZM133.5 246C195.632 246 246 195.408 246 133C246 70.5918 195.632 20 133.5 20C71.368 20 21 70.5918 21 133C21 195.408 71.368 246 133.5 246Z" fill="black"/>
<path d="M203.011 144.5H223.216C217.378 188.809 179.66 223 134 223C84.2944 223 44 182.482 44 132.5C44 82.5182 84.2944 42 134 42C178.276 42 215.085 74.1497 222.598 116.5H202.228C195.064 84.7147 167.012 61 133.5 61C94.5639 61 63 93.0116 63 132.5C63 171.988 94.5639 204 133.5 204C168.404 204 197.384 178.275 203.011 144.5Z" fill="black"/>
<path fill-rule="evenodd" clip-rule="evenodd" d="M266 133C266 205.902 206.678 265 133.5 265C60.3223 265 1 205.902 1 133C1 60.0984 60.3223 1 133.5 1C206.678 1 266 60.0984 266 133ZM133.5 246C195.632 246 246 195.408 246 133C246 70.5918 195.632 20 133.5 20C71.368 20 21 70.5918 21 133C21 195.408 71.368 246 133.5 246Z" stroke="black"/>
<path d="M203.011 144.5H223.216C217.378 188.809 179.66 223 134 223C84.2944 223 44 182.482 44 132.5C44 82.5182 84.2944 42 134 42C178.276 42 215.085 74.1497 222.598 116.5H202.228C195.064 84.7147 167.012 61 133.5 61C94.5639 61 63 93.0116 63 132.5C63 171.988 94.5639 204 133.5 204C168.404 204 197.384 178.275 203.011 144.5Z" stroke="black"/>
</svg>
