<?xml version="1.0" standalone="no"?>
<!DOCTYPE svg PUBLIC "-//W3C//DTD SVG 20010904//EN"
 "http://www.w3.org/TR/2001/REC-SVG-20010904/DTD/svg10.dtd">
<svg version="1.0" xmlns="http://www.w3.org/2000/svg"
 width="614.000000pt" height="319.000000pt" viewBox="0 0 614.000000 319.000000"
 preserveAspectRatio="xMidYMid meet">

<g transform="translate(0.000000,319.000000) scale(0.100000,-0.100000)"
fill="#000000" stroke="none">
<path d="M987 2799 c-265 -65 -479 -283 -543 -555 -24 -102 -15 -282 20 -389
78 -243 294 -442 542 -500 97 -22 250 -21 348 4 129 34 227 92 337 201 82 82
102 108 141 190 88 181 103 384 41 563 -44 124 -85 189 -188 292 -74 74 -106
98 -177 133 -162 79 -356 102 -521 61z m378 -118 c95 -34 186 -94 258 -170
121 -129 177 -262 177 -424 0 -113 -18 -186 -70 -293 -69 -142 -184 -247 -333
-305 -70 -27 -98 -32 -198 -37 -140 -6 -193 5 -309 61 -256 124 -396 422 -335
711 46 218 229 407 455 471 80 22 274 14 355 -14z"/>
<path d="M1080 2579 c-130 -21 -288 -136 -352 -255 -102 -190 -68 -444 81
-593 66 -66 122 -101 211 -131 55 -19 82 -21 175 -18 104 3 115 6 190 42 107
52 189 133 239 237 20 42 37 94 39 115 l2 39 -43 3 c-53 4 -69 -8 -77 -59 -9
-52 -77 -153 -129 -191 -142 -105 -306 -114 -453 -26 -61 36 -120 106 -154
183 -33 75 -38 211 -10 286 104 276 424 356 634 159 61 -57 80 -86 111 -163
15 -38 15 -38 68 -35 50 3 53 4 50 28 -2 14 -19 59 -39 100 -71 146 -216 255
-373 280 -74 11 -93 11 -170 -1z"/>
<path d="M2270 2482 c-36 -37 -39 -71 -6 -108 48 -57 140 -23 140 51 0 42 -26
72 -71 81 -27 5 -37 1 -63 -24z"/>
<path d="M3346 2494 c-61 -19 -140 -95 -155 -150 -29 -104 1 -197 80 -250 31
-20 88 -42 170 -63 134 -36 152 -43 187 -74 29 -27 30 -84 0 -122 -68 -87
-261 -70 -313 27 l-20 38 -67 0 c-74 0 -75 0 -56 -61 47 -157 285 -233 471
-151 158 69 210 258 101 366 -43 42 -106 70 -239 106 -140 37 -175 61 -175
121 0 120 227 144 293 30 18 -30 20 -31 88 -31 68 0 70 1 64 23 -27 94 -96
165 -187 192 -64 19 -178 18 -242 -1z"/>
<path d="M2755 2272 c-22 -11 -48 -29 -59 -40 -23 -27 -36 -20 -36 19 l0 30
-67 -3 -68 -3 0 -300 0 -300 70 0 70 0 5 205 c4 176 8 209 23 231 32 48 104
65 166 39 55 -22 61 -47 61 -262 0 -106 4 -199 9 -206 5 -9 27 -12 72 -10 l64
3 0 225 c0 222 -1 227 -26 275 -37 73 -90 106 -176 112 -52 3 -77 0 -108 -15z"/>
<path d="M4770 2279 c-19 -6 -49 -24 -65 -40 -17 -16 -34 -29 -38 -29 -4 0 -7
16 -7 35 l0 35 -70 0 -70 0 0 -305 0 -305 69 0 c54 0 70 4 75 16 3 9 6 97 6
196 0 200 8 236 61 263 41 22 111 19 142 -5 39 -31 47 -77 47 -282 l0 -188 70
0 70 0 1 43 c4 142 -3 399 -11 427 -15 54 -55 105 -97 125 -45 22 -134 29
-183 14z"/>
<path d="M5357 2280 c-53 -16 -126 -71 -156 -118 -41 -64 -55 -128 -48 -221
12 -174 125 -285 292 -284 114 0 203 52 249 145 38 75 36 78 -38 78 -63 0 -65
-1 -86 -35 -31 -50 -71 -68 -138 -63 -48 4 -60 10 -88 41 -51 55 -66 137 -43
222 17 59 44 91 94 110 65 25 110 14 161 -41 39 -42 44 -44 97 -44 31 0 58 3
60 8 12 21 -20 80 -67 127 -40 40 -67 57 -106 69 -57 17 -137 20 -183 6z"/>
<path d="M2255 2267 c-3 -7 -4 -143 -3 -302 l3 -290 70 0 70 0 3 303 2 302
-70 0 c-48 0 -72 -4 -75 -13z"/>
<path d="M3850 2270 c0 -5 32 -96 71 -202 163 -447 154 -415 136 -452 -16 -35
-68 -66 -111 -66 -25 0 -26 -2 -26 -55 0 -50 2 -55 23 -56 48 -2 102 3 126 12
55 21 121 107 146 189 4 14 22 63 40 110 61 157 185 503 185 517 0 10 -18 13
-70 13 -56 0 -71 -3 -79 -18 -10 -19 -116 -341 -127 -385 -7 -31 -22 -44 -29
-25 -2 7 -34 106 -70 221 l-66 207 -75 0 c-42 0 -74 -4 -74 -10z"/>
</g>
</svg>
